HIERARCHY
ROOT Hips
{
	OFFSET 0.000000 0.000000 0.000000
	CHANNELS 6 Xposition Yposition Zposition Yrotation Xrotation Zrotation
	JOINT Chest
	{
		OFFSET 0.000000 -0.009281 11.569106
		CHANNELS 3 Yrotation Xrotation Zrotation
		JOINT Chest2
		{
			OFFSET -0.000000 0.016865 9.269641
			CHANNELS 3 Yrotation Xrotation Zrotation
			JOINT Chest3
			{
				OFFSET -0.000000 0.000001 8.374491
				CHANNELS 3 Yrotation Xrotation Zrotation
				JOINT Chest4
				{
					OFFSET -0.000000 0.000001 8.374493
					CHANNELS 3 Yrotation Xrotation Zrotation
					JOINT Neck
					{
						OFFSET -0.000000 0.000002 12.152554
						CHANNELS 3 Yrotation Xrotation Zrotation
						JOINT Head
						{
							OFFSET -0.000000 0.040101 7.802319
							CHANNELS 3 Yrotation Xrotation Zrotation
							End Site
							{
								OFFSET -0.000000 0.020947 14.853096
							}
						}
					}
					JOINT RightCollar
					{
						OFFSET 2.894404 0.000001 6.791374
						CHANNELS 3 Yrotation Xrotation Zrotation
						JOINT RightShoulder
						{
							OFFSET 13.574684 0.000001 0.000000
							CHANNELS 3 Yrotation Xrotation Zrotation
							JOINT RightElbow
							{
								OFFSET 23.923903 0.000002 0.000000
								CHANNELS 3 Yrotation Xrotation Zrotation
								JOINT RightWrist
								{
									OFFSET 19.846718 0.012767 0.000000
									CHANNELS 3 Yrotation Xrotation Zrotation
									End Site
									{
										OFFSET 14.973145 0.000001 0.000000
									}
								}
							}
						}
					}
					JOINT LeftCollar
					{
						OFFSET -2.894404 0.000001 6.791374
						CHANNELS 3 Yrotation Xrotation Zrotation
						JOINT LeftShoulder
						{
							OFFSET -13.574684 -0.000001 0.000000
							CHANNELS 3 Yrotation Xrotation Zrotation
							JOINT LeftElbow
							{
								OFFSET -23.923903 -0.000002 0.000000
								CHANNELS 3 Yrotation Xrotation Zrotation
								JOINT LeftWrist
								{
									OFFSET -19.846718 0.012763 0.000000
									CHANNELS 3 Yrotation Xrotation Zrotation
									End Site
									{
										OFFSET -14.973145 -0.000001 0.000000
									}
								}
							}
						}
					}
				}
			}
		}
	}
	JOINT RightHip
	{
		OFFSET 9.469263 0.004643 0.045487
		CHANNELS 3 Yrotation Xrotation Zrotation
		JOINT RightKnee
		{
			OFFSET 0.000000 0.002661 -40.478676
			CHANNELS 3 Yrotation Xrotation Zrotation
			JOINT RightAnkle
			{
				OFFSET 0.000000 0.049106 -35.224068
				CHANNELS 3 Yrotation Xrotation Zrotation
				JOINT RightToe
				{
					OFFSET -0.000001 12.539529 -6.151390
					CHANNELS 3 Yrotation Xrotation Zrotation
					End Site
					{
						OFFSET -0.000001 5.044994 -1.291870
					}
				}
			}
		}
	}
	JOINT LeftHip
	{
		OFFSET -9.469263 0.004641 0.045487
		CHANNELS 3 Yrotation Xrotation Zrotation
		JOINT LeftKnee
		{
			OFFSET 0.000000 0.002661 -40.478676
			CHANNELS 3 Yrotation Xrotation Zrotation
			JOINT LeftAnkle
			{
				OFFSET 0.000000 0.049106 -35.224068
				CHANNELS 3 Yrotation Xrotation Zrotation
				JOINT LeftToe
				{
					OFFSET -0.000001 12.539529 -6.151390
					CHANNELS 3 Yrotation Xrotation Zrotation
					End Site
					{
						OFFSET -0.000001 5.044994 -1.291870
					}
				}
			}
		}
	}
}
MOTION
Frames: 11
Frame Time: 0.016667
10.093347 5.301828 83.043716 -8.553824 -4.069502 -113.022808 -0.056552 -5.199576 0.631573 -0.021432 -2.309236 0.259699 -0.021431 -2.309236 0.259696 -0.015090 -1.731936 0.194667 1.902553 -22.557113 1.696390 3.894185 -5.788815 3.578211 1.244865 -0.388849 -2.150509 74.555736 -25.304724 45.448926 -15.641021 -24.756244 58.246651 -41.926645 27.253368 62.299562 -10.392107 -0.624518 -10.738427 -71.594057 0.089299 -42.678157 -43.633106 26.677215 -36.206638 -10.293520 41.511663 -2.053071 -0.822589 -9.846537 -0.272915 0.617956 -5.343191 -2.907459 0.760488 5.455156 4.763232 0.006025 -0.014209 -0.021189 -0.549212 -11.888226 1.531695 0.534883 -1.998618 4.228160 -0.554660 4.471721 -2.426983 -0.024572 -0.022266 0.019273 
10.077028 5.288793 83.040077 -8.550886 -4.066220 -113.061235 -0.074005 -5.205760 0.628724 -0.029939 -2.311298 0.258311 -0.029939 -2.311298 0.258319 -0.021474 -1.733487 0.193596 1.925826 -22.566388 1.678839 3.931081 -5.806277 3.552530 1.278832 -0.410186 -2.139350 75.180288 -25.118407 44.654445 -14.103083 -24.530583 57.701985 -42.341237 27.491884 62.092642 -10.397575 -0.653941 -10.733420 -71.643603 0.162037 -42.741999 -43.641576 26.764354 -36.275032 -10.281339 41.552829 -2.079906 -0.809512 -9.824244 -0.251649 0.608327 -5.355658 -2.889634 0.744809 5.457042 4.733915 0.004842 -0.018417 -0.020585 -0.554290 -11.880507 1.537151 0.549670 -2.001411 4.235820 -0.562943 4.474740 -2.404332 -0.026113 -0.027792 0.019135 
10.057782 5.269642 83.037735 -8.544899 -4.068244 -113.094996 -0.082303 -5.213339 0.634401 -0.033497 -2.313955 0.261796 -0.033497 -2.313956 0.261793 -0.024128 -1.735482 0.196192 1.941269 -22.565466 1.653301 3.952043 -5.804085 3.510691 1.348617 -0.458463 -2.132554 75.837093 -24.744894 43.936155 -12.907370 -24.567676 57.345981 -42.802682 27.726224 61.919640 -10.393016 -0.699997 -10.748589 -71.694761 0.227592 -42.814624 -43.669043 26.836723 -36.343474 -10.287727 41.584828 -2.094471 -0.790848 -9.807010 -0.299400 0.592503 -5.357357 -2.817598 0.734906 5.450128 4.753208 0.001091 -0.020043 -0.017868 -0.545423 -11.871011 1.539003 0.564835 -2.007244 4.233723 -0.574450 4.480026 -2.378588 -0.030137 -0.033175 0.017868 
10.039357 5.250744 83.035934 -8.529514 -4.072400 -113.131292 -0.077310 -5.221555 0.632215 -0.030070 -2.317537 0.262074 -0.030070 -2.317536 0.262077 -0.021556 -1.738165 0.196416 1.932217 -22.557571 1.643057 3.933213 -5.788528 3.490040 1.431064 -0.488341 -2.131523 76.290358 -24.316411 43.403322 -12.463657 -25.001798 57.301018 -43.061027 27.847392 61.859077 -10.391068 -0.730916 -10.761472 -71.722368 0.268683 -42.864085 -43.705339 26.885633 -36.431041 -10.307674 41.581399 -2.094342 -0.771637 -9.790102 -0.384829 0.589686 -5.342560 -2.719932 0.720140 5.435158 4.781838 -0.006799 -0.021922 -0.018028 -0.529693 -11.855778 1.551103 0.576521 -2.010408 4.221811 -0.580962 4.486812 -2.373109 -0.035623 -0.039004 0.017449 
10.024050 5.231562 83.034210 -8.510221 -4.076961 -113.177628 -0.065250 -5.226664 0.613316 -0.024398 -2.319804 0.254708 -0.024398 -2.319804 0.254712 -0.017329 -1.739864 0.190914 1.900134 -22.554130 1.662166 3.880642 -5.781583 3.515932 1.494445 -0.444061 -2.163371 76.466119 -23.999874 42.971363 -12.722539 -25.715304 57.580981 -42.884883 27.718096 61.991931 -10.387162 -0.758761 -10.746645 -71.721269 0.295290 -42.883438 -43.778319 26.930819 -36.553540 -10.321311 41.568033 -2.089259 -0.753657 -9.773300 -0.431002 0.589649 -5.321561 -2.648139 0.711314 5.418025 4.782978 -0.016897 -0.023648 -0.017562 -0.519893 -11.842267 1.575039 0.595210 -2.009097 4.216990 -0.586662 4.494117 -2.360212 -0.042352 -0.043162 0.017171 
10.010471 5.210668 83.033287 -8.491544 -4.078740 -113.233041 -0.058020 -5.229624 0.583383 -0.022195 -2.321556 0.242649 -0.022194 -2.321556 0.242646 -0.015721 -1.741176 0.181874 1.865185 -22.560099 1.704141 3.828779 -5.793020 3.581954 1.507056 -0.357820 -2.228212 76.409845 -23.894826 42.534986 -13.643685 -26.481386 58.221987 -42.518624 27.465478 62.244545 -10.373621 -0.777053 -10.714806 -71.708933 0.327605 -42.885481 -43.870664 26.981119 -36.675811 -10.321694 41.565126 -2.083084 -0.738730 -9.762143 -0.412277 0.590164 -5.288311 -2.627436 0.707253 5.396081 4.799012 -0.026467 -0.025551 -0.016646 -0.512821 -11.832870 1.610847 0.609306 -2.001753 4.213701 -0.591222 4.497613 -2.328095 -0.046602 -0.043715 0.017431 
9.998932 5.191786 83.032898 -8.479195 -4.076125 -113.288557 -0.070293 -5.244186 0.562490 -0.028449 -2.328717 0.234230 -0.028449 -2.328717 0.234226 -0.020441 -1.746550 0.175536 1.856042 -22.562002 1.743551 3.822903 -5.797949 3.650499 1.483504 -0.309944 -2.307218 76.247492 -23.993362 42.122880 -14.873565 -27.043005 59.010601 -42.218844 27.326982 62.497788 -10.347657 -0.760101 -10.697377 -71.701127 0.369965 -42.892365 -43.921572 27.011957 -36.749758 -10.291113 41.545954 -2.071906 -0.726885 -9.756103 -0.356037 0.590681 -5.254045 -2.650756 0.704150 5.375855 4.784804 -0.034356 -0.028052 -0.017704 -0.510300 -11.828505 1.646269 0.622193 -1.995825 4.211304 -0.599228 4.498964 -2.325011 -0.047962 -0.039833 0.017696 
9.985713 5.169644 83.032150 -8.473633 -4.075535 -113.342215 -0.101138 -5.263866 0.553136 -0.042794 -2.338117 0.230867 -0.042794 -2.338117 0.230867 -0.031208 -1.753604 0.172961 1.874749 -22.561797 1.773387 3.864740 -5.799832 3.709387 1.454254 -0.291915 -2.383887 76.134596 -24.242479 41.677309 -15.698010 -27.221652 59.562972 -42.003785 27.317811 62.709203 -10.317574 -0.726940 -10.690674 -71.693668 0.430110 -42.915124 -43.910313 27.020292 -36.760420 -10.263007 41.526495 -2.068580 -0.713225 -9.757415 -0.272896 0.581566 -5.218773 -2.696551 0.703389 5.355041 4.816637 -0.035131 -0.029751 -0.016906 -0.509731 -11.827527 1.661915 0.638622 -1.994646 4.214105 -0.610247 4.500522 -2.302209 -0.048051 -0.035549 0.016948 
9.970555 5.147737 83.030067 -8.475198 -4.075007 -113.391973 -0.137822 -5.272415 0.547963 -0.059688 -2.342053 0.229156 -0.059688 -2.342053 0.229156 -0.043882 -1.756563 0.171615 1.902978 -22.567860 1.792015 3.920485 -5.813283 3.750411 1.436409 -0.326161 -2.439121 76.195309 -24.450559 41.158515 -15.683895 -27.093574 59.687227 -41.899963 27.369984 62.803624 -10.304022 -0.718723 -10.666487 -71.690629 0.485650 -42.951669 -43.870957 27.028143 -36.755160 -10.241417 41.523978 -2.062753 -0.694335 -9.762526 -0.192617 0.570094 -5.188710 -2.740789 0.692780 5.339683 4.828488 -0.031791 -0.033605 -0.017273 -0.508507 -11.828525 1.665443 0.653203 -2.001375 4.222286 -0.622281 4.506870 -2.279149 -0.048200 -0.033247 0.016389 
9.952057 5.125811 83.026642 -8.480237 -4.077120 -113.437564 -0.167507 -5.270836 0.549415 -0.073174 -2.341313 0.229991 -0.073174 -2.341313 0.229990 -0.053991 -1.756014 0.172187 1.929121 -22.575981 1.794827 3.968106 -5.829725 3.762253 1.445032 -0.381459 -2.480807 76.519593 -24.427775 40.550225 -15.086121 -26.971802 59.539490 -42.012859 27.511567 62.784506 -10.299915 -0.743307 -10.645430 -71.718120 0.544033 -42.996679 -43.861480 27.043897 -36.766249 -10.227552 41.545339 -2.069211 -0.678563 -9.763472 -0.142614 0.562373 -5.172291 -2.749679 0.675683 5.330070 4.830191 -0.025570 -0.037673 -0.017690 -0.509311 -11.826439 1.664438 0.672759 -2.016455 4.234148 -0.631962 4.518669 -2.241997 -0.051377 -0.035037 0.016031 
9.931398 5.106689 83.022865 -8.486215 -4.084483 -113.481715 -0.181007 -5.266203 0.548838 -0.078808 -2.339099 0.230843 -0.078809 -2.339099 0.230845 -0.058214 -1.754355 0.172805 1.935626 -22.583628 1.791508 3.978660 -5.844063 3.757750 1.478775 -0.437739 -2.507195 77.014720 -24.143981 39.937578 -14.437937 -27.068064 59.367861 -42.212567 27.654318 62.730028 -10.311270 -0.778820 -10.629335 -71.756977 0.600802 -43.027818 -43.905696 27.078232 -36.819187 -10.237644 41.577486 -2.088315 -0.654945 -9.765477 -0.128195 0.549175 -5.156631 -2.718196 0.656508 5.318144 4.811239 -0.020066 -0.040810 -0.017367 -0.503507 -11.823507 1.663701 0.690581 -2.037803 4.242636 -0.635098 4.535523 -2.225755 -0.059387 -0.038642 0.014566 
